{"asset":{"generator":"glTF-Transform v4.5.1","version":"2.0"},"accessors":[{"type":"SCALAR","componentType":5123,"count":744,"normalized":false,"byteOffset":0,"bufferView":0},{"type":"VEC4","componentType":5121,"count":250,"normalized":true,"byteOffset":0,"bufferView":1},{"type":"VEC3","componentType":5122,"count":250,"max":[5420,24246,5880],"min":[-4528,-12029,-7484],"normalized":true,"byteOffset":0,"bufferView":2},{"type":"VEC3","componentType":5120,"count":250,"normalized":true,"byteOffset":0,"bufferView":3},{"type":"SCALAR","componentType":5123,"count":3027,"normalized":false,"byteOffset":1488,"bufferView":0},{"type":"VEC4","componentType":5121,"count":720,"normalized":true,"byteOffset":0,"bufferView":4},{"type":"VEC3","componentType":5122,"count":720,"max":[864,23850,2916],"min":[-2772,-32767,-844],"normalized":true,"byteOffset":0,"bufferView":5},{"type":"VEC3","componentType":5120,"count":720,"normalized":true,"byteOffset":0,"bufferView":6},{"type":"SCALAR","componentType":5125,"count":241443,"normalized":false,"byteOffset":0,"bufferView":7},{"type":"VEC4","componentType":5121,"count":185394,"normalized":true,"byteOffset":0,"bufferView":8},{"type":"VEC3","componentType":5122,"count":185394,"max":[12169,32767,13305],"min":[-12169,-13981,-13305],"normalized":true,"byteOffset":0,"bufferView":9},{"type":"VEC3","componentType":5120,"count":185394,"normalized":true,"byteOffset":0,"bufferView":10},{"type":"SCALAR","componentType":5123,"count":162,"normalized":false,"byteOffset":7542,"bufferView":0},{"type":"VEC4","componentType":5121,"count":119,"normalized":true,"byteOffset":0,"bufferView":11},{"type":"VEC3","componentType":5122,"count":119,"max":[620,-8112,2436],"min":[-3208,-24963,-1156],"normalized":true,"byteOffset":0,"bufferView":12},{"type":"VEC3","componentType":5120,"count":119,"normalized":true,"byteOffset":0,"bufferView":13},{"type":"VEC2","componentType":5123,"count":250,"normalized":true,"byteOffset":0,"bufferView":14},{"type":"VEC2","componentType":5123,"count":720,"normalized":true,"byteOffset":0,"bufferView":15},{"type":"VEC2","componentType":5123,"count":185394,"normalized":true,"byteOffset":0,"bufferView":16},{"type":"VEC2","componentType":5123,"count":119,"normalized":true,"byteOffset":0,"bufferView":17}],"bufferViews":[{"buffer":1,"byteOffset":0,"byteLength":7866,"target":34963,"extensions":{"EXT_meshopt_compression":{"buffer":0,"byteOffset":0,"byteLength":1483,"mode":"TRIANGLES","byteStride":2,"count":3933}}},{"buffer":1,"byteOffset":7868,"byteLength":1000,"target":34962,"byteStride":4,"extensions":{"EXT_meshopt_compression":{"buffer":0,"byteOffset":1484,"byteLength":49,"mode":"ATTRIBUTES","byteStride":4,"count":250}}},{"buffer":1,"byteOffset":8868,"byteLength":2000,"target":34962,"byteStride":8,"extensions":{"EXT_meshopt_compression":{"buffer":0,"byteOffset":1536,"byteLength":1316,"mode":"ATTRIBUTES","byteStride":8,"count":250}}},{"buffer":1,"byteOffset":10868,"byteLength":1000,"target":34962,"byteStride":4,"extensions":{"EXT_meshopt_compression":{"buffer":0,"byteOffset":2852,"byteLength":557,"mode":"ATTRIBUTES","filter":"OCTAHEDRAL","byteStride":4,"count":250}}},{"buffer":1,"byteOffset":11868,"byteLength":2880,"target":34962,"byteStride":4,"extensions":{"EXT_meshopt_compression":{"buffer":0,"byteOffset":3412,"byteLength":81,"mode":"ATTRIBUTES","byteStride":4,"count":720}}},{"buffer":1,"byteOffset":14748,"byteLength":5760,"target":34962,"byteStride":8,"extensions":{"EXT_meshopt_compression":{"buffer":0,"byteOffset":3496,"byteLength":3113,"mode":"ATTRIBUTES","byteStride":8,"count":720}}},{"buffer":1,"byteOffset":20508,"byteLength":2880,"target":34962,"byteStride":4,"extensions":{"EXT_meshopt_compression":{"buffer":0,"byteOffset":6612,"byteLength":1468,"mode":"ATTRIBUTES","filter":"OCTAHEDRAL","byteStride":4,"count":720}}},{"buffer":1,"byteOffset":23388,"byteLength":965772,"target":34963,"extensions":{"EXT_meshopt_compression":{"buffer":0,"byteOffset":8080,"byteLength":81568,"mode":"TRIANGLES","byteStride":4,"count":241443}}},{"buffer":1,"byteOffset":989160,"byteLength":741576,"target":34962,"byteStride":4,"extensions":{"EXT_meshopt_compression":{"buffer":0,"byteOffset":89648,"byteLength":11621,"mode":"ATTRIBUTES","byteStride":4,"count":185394}}},{"buffer":1,"byteOffset":1730736,"byteLength":1483152,"target":34962,"byteStride":8,"extensions":{"EXT_meshopt_compression":{"buffer":0,"byteOffset":101272,"byteLength":750908,"mode":"ATTRIBUTES","byteStride":8,"count":185394}}},{"buffer":1,"byteOffset":3213888,"byteLength":741576,"target":34962,"byteStride":4,"extensions":{"EXT_meshopt_compression":{"buffer":0,"byteOffset":852180,"byteLength":380806,"mode":"ATTRIBUTES","filter":"OCTAHEDRAL","byteStride":4,"count":185394}}},{"buffer":1,"byteOffset":3955464,"byteLength":476,"target":34962,"byteStride":4,"extensions":{"EXT_meshopt_compression":{"buffer":0,"byteOffset":1232988,"byteLength":41,"mode":"ATTRIBUTES","byteStride":4,"count":119}}},{"buffer":1,"byteOffset":3955940,"byteLength":952,"target":34962,"byteStride":8,"extensions":{"EXT_meshopt_compression":{"buffer":0,"byteOffset":1233032,"byteLength":582,"mode":"ATTRIBUTES","byteStride":8,"count":119}}},{"buffer":1,"byteOffset":3956892,"byteLength":476,"target":34962,"byteStride":4,"extensions":{"EXT_meshopt_compression":{"buffer":0,"byteOffset":1233616,"byteLength":285,"mode":"ATTRIBUTES","filter":"OCTAHEDRAL","byteStride":4,"count":119}}},{"buffer":1,"byteOffset":3957368,"byteLength":1000,"target":34962,"byteStride":4,"extensions":{"EXT_meshopt_compression":{"buffer":0,"byteOffset":1233904,"byteLength":1009,"mode":"ATTRIBUTES","byteStride":4,"count":250}}},{"buffer":1,"byteOffset":3958368,"byteLength":2880,"target":34962,"byteStride":4,"extensions":{"EXT_meshopt_compression":{"buffer":0,"byteOffset":1234916,"byteLength":2694,"mode":"ATTRIBUTES","byteStride":4,"count":720}}},{"buffer":1,"byteOffset":3961248,"byteLength":741576,"target":34962,"byteStride":4,"extensions":{"EXT_meshopt_compression":{"buffer":0,"byteOffset":1237612,"byteLength":734059,"mode":"ATTRIBUTES","byteStride":4,"count":185394}}},{"buffer":1,"byteOffset":4702824,"byteLength":476,"target":34962,"byteStride":4,"extensions":{"EXT_meshopt_compression":{"buffer":0,"byteOffset":1971672,"byteLength":503,"mode":"ATTRIBUTES","byteStride":4,"count":119}}}],"samplers":[{"magFilter":9729,"minFilter":9987,"wrapS":10497,"wrapT":10497}],"textures":[{"sampler":0,"extensions":{"KHR_texture_basisu":{"source":2}}},{"sampler":0,"extensions":{"KHR_texture_basisu":{"source":1}}},{"sampler":0,"extensions":{"KHR_texture_basisu":{"source":0}}},{"sampler":0,"extensions":{"KHR_texture_basisu":{"source":5}}},{"sampler":0,"extensions":{"KHR_texture_basisu":{"source":4}}},{"sampler":0,"extensions":{"KHR_texture_basisu":{"source":3}}},{"sampler":0,"extensions":{"KHR_texture_basisu":{"source":8}}},{"sampler":0,"extensions":{"KHR_texture_basisu":{"source":7}}},{"sampler":0,"extensions":{"KHR_texture_basisu":{"source":6}}}],"images":[{"name":"pine_tree_01_bark_rough","mimeType":"image/ktx2","uri":"textures/pine_tree_01_bark_rough.ktx2"},{"name":"pine_tree_01_bark_nor_gl","mimeType":"image/ktx2","uri":"textures/pine_tree_01_bark_nor_gl.ktx2"},{"name":"pine_tree_01_bark_diff","mimeType":"image/ktx2","uri":"textures/pine_tree_01_bark_diff.ktx2"},{"name":"pine_tree_01_trunk_a_rough","mimeType":"image/ktx2","uri":"textures/pine_tree_01_trunk_a_rough.ktx2"},{"name":"pine_tree_01_trunk_a_nor_gl","mimeType":"image/ktx2","uri":"textures/pine_tree_01_trunk_a_nor_gl.ktx2"},{"name":"pine_tree_01_trunk_a_diff","mimeType":"image/ktx2","uri":"textures/pine_tree_01_trunk_a_diff.ktx2"},{"name":"pine_tree_01_twig_rough","mimeType":"image/ktx2","uri":"textures/pine_tree_01_twig_rough.ktx2"},{"name":"pine_tree_01_twig_nor_gl","mimeType":"image/ktx2","uri":"textures/pine_tree_01_twig_nor_gl.ktx2"},{"name":"pine_tree_01_twig_diff","mimeType":"image/ktx2","uri":"textures/pine_tree_01_twig_diff.ktx2"}],"buffers":[{"uri":"distance.bin","byteLength":1972176},{"byteLength":4703300,"extensions":{"EXT_meshopt_compression":{"fallback":true}}}],"materials":[{"name":"pine_tree_01_bark","doubleSided":true,"pbrMetallicRoughness":{"metallicFactor":0,"baseColorTexture":{"index":0,"extensions":{"KHR_texture_transform":{"offset":[0,0.9000000655651093],"scale":[1.2000000476837158,0.09999993443489075]}}},"metallicRoughnessTexture":{"index":2,"extensions":{"KHR_texture_transform":{"offset":[0,0.9000000655651093],"scale":[1.2000000476837158,0.09999993443489075]}}}},"normalTexture":{"index":1,"extensions":{"KHR_texture_transform":{"offset":[0,0.9000000655651093],"scale":[1.2000000476837158,0.09999993443489075]}}},"extensions":{"KHR_materials_ior":{"ior":1.4500000476837158},"KHR_materials_specular":{"specularFactor":0.03999999910593033}}},{"name":"pine_tree_01_trunk_a","doubleSided":true,"pbrMetallicRoughness":{"metallicFactor":0,"baseColorTexture":{"index":3},"metallicRoughnessTexture":{"index":5}},"normalTexture":{"index":4},"extensions":{"KHR_materials_ior":{"ior":1.4500000476837158},"KHR_materials_specular":{"specularFactor":0.4000000059604645}}},{"name":"pine_tree_01_twig","doubleSided":true,"pbrMetallicRoughness":{"metallicFactor":0,"baseColorTexture":{"index":6},"metallicRoughnessTexture":{"index":8}},"normalTexture":{"index":7},"extensions":{"KHR_materials_ior":{"ior":1.4500000476837158},"KHR_materials_specular":{"specularFactor":0.019999999552965164}}},{"name":"pine_tree_01_dead_branches","doubleSided":true,"pbrMetallicRoughness":{"metallicFactor":0,"baseColorTexture":{"index":0},"metallicRoughnessTexture":{"index":2}},"normalTexture":{"index":1},"extensions":{"KHR_materials_ior":{"ior":1.4500000476837158},"KHR_materials_specular":{"specularFactor":0.03999999910593033}}}],"meshes":[{"name":"NurbsPath.022","primitives":[{"attributes":{"COLOR_0":1,"POSITION":2,"NORMAL":3,"TEXCOORD_0":16},"mode":4,"material":0,"indices":0},{"attributes":{"COLOR_0":5,"POSITION":6,"NORMAL":7,"TEXCOORD_0":17},"mode":4,"material":1,"indices":4},{"attributes":{"COLOR_0":9,"POSITION":10,"NORMAL":11,"TEXCOORD_0":18},"mode":4,"material":2,"indices":8},{"attributes":{"COLOR_0":13,"POSITION":14,"NORMAL":15,"TEXCOORD_0":19},"mode":4,"material":3,"indices":12}]}],"nodes":[{"name":"Pine Tree 01 A","translation":[0.327351450920105,10.074564769864082,-0.3352482318878174],"scale":[10.15402714908123,10.15402714908123,10.15402714908123],"mesh":0}],"scenes":[{"nodes":[0]}],"scene":0,"extensionsUsed":["EXT_meshopt_compression","KHR_materials_ior","KHR_materials_specular","KHR_mesh_quantization","KHR_texture_basisu","KHR_texture_transform"],"extensionsRequired":["EXT_meshopt_compression","KHR_mesh_quantization","KHR_texture_basisu","KHR_texture_transform"]}