{"asset":{"generator":"glTF-Transform v4.5.1","version":"2.0"},"accessors":[{"type":"SCALAR","componentType":5123,"count":5412,"normalized":false,"byteOffset":0,"bufferView":0},{"type":"VEC4","componentType":5121,"count":1604,"normalized":true,"byteOffset":0,"bufferView":1},{"type":"VEC3","componentType":5122,"count":1604,"max":[10269,26139,10505],"min":[-7864,-13241,-11037],"normalized":true,"byteOffset":0,"bufferView":2},{"type":"VEC3","componentType":5120,"count":1604,"normalized":true,"byteOffset":0,"bufferView":3},{"type":"SCALAR","componentType":5123,"count":20232,"normalized":false,"byteOffset":10824,"bufferView":0},{"type":"VEC4","componentType":5121,"count":4034,"normalized":true,"byteOffset":0,"bufferView":4},{"type":"VEC3","componentType":5122,"count":4034,"max":[920,23690,2864],"min":[-2704,-32767,-900],"normalized":true,"byteOffset":0,"bufferView":5},{"type":"VEC3","componentType":5120,"count":4034,"normalized":true,"byteOffset":0,"bufferView":6},{"type":"SCALAR","componentType":5125,"count":1621749,"normalized":false,"byteOffset":0,"bufferView":7},{"type":"VEC4","componentType":5121,"count":939271,"normalized":true,"byteOffset":0,"bufferView":8},{"type":"VEC3","componentType":5122,"count":939271,"max":[12229,32767,13361],"min":[-12229,-14033,-13361],"normalized":true,"byteOffset":0,"bufferView":9},{"type":"VEC3","componentType":5120,"count":939271,"normalized":true,"byteOffset":0,"bufferView":10},{"type":"SCALAR","componentType":5123,"count":1023,"normalized":false,"byteOffset":51288,"bufferView":0},{"type":"VEC4","componentType":5121,"count":441,"normalized":true,"byteOffset":0,"bufferView":11},{"type":"VEC3","componentType":5122,"count":441,"max":[1336,-7704,3480],"min":[-3876,-26647,-2064],"normalized":true,"byteOffset":0,"bufferView":12},{"type":"VEC3","componentType":5120,"count":441,"normalized":true,"byteOffset":0,"bufferView":13},{"type":"VEC2","componentType":5123,"count":1604,"normalized":true,"byteOffset":0,"bufferView":14},{"type":"VEC2","componentType":5123,"count":4034,"normalized":true,"byteOffset":0,"bufferView":15},{"type":"VEC2","componentType":5123,"count":939271,"normalized":true,"byteOffset":0,"bufferView":16},{"type":"VEC2","componentType":5123,"count":441,"normalized":true,"byteOffset":0,"bufferView":17}],"bufferViews":[{"buffer":1,"byteOffset":0,"byteLength":53334,"target":34963,"extensions":{"EXT_meshopt_compression":{"buffer":0,"byteOffset":0,"byteLength":10018,"mode":"TRIANGLES","byteStride":2,"count":26667}}},{"buffer":1,"byteOffset":53336,"byteLength":6416,"target":34962,"byteStride":4,"extensions":{"EXT_meshopt_compression":{"buffer":0,"byteOffset":10020,"byteLength":137,"mode":"ATTRIBUTES","byteStride":4,"count":1604}}},{"buffer":1,"byteOffset":59752,"byteLength":12832,"target":34962,"byteStride":8,"extensions":{"EXT_meshopt_compression":{"buffer":0,"byteOffset":10160,"byteLength":7734,"mode":"ATTRIBUTES","byteStride":8,"count":1604}}},{"buffer":1,"byteOffset":72584,"byteLength":6416,"target":34962,"byteStride":4,"extensions":{"EXT_meshopt_compression":{"buffer":0,"byteOffset":17896,"byteLength":3353,"mode":"ATTRIBUTES","filter":"OCTAHEDRAL","byteStride":4,"count":1604}}},{"buffer":1,"byteOffset":79000,"byteLength":16136,"target":34962,"byteStride":4,"extensions":{"EXT_meshopt_compression":{"buffer":0,"byteOffset":21252,"byteLength":289,"mode":"ATTRIBUTES","byteStride":4,"count":4034}}},{"buffer":1,"byteOffset":95136,"byteLength":32272,"target":34962,"byteStride":8,"extensions":{"EXT_meshopt_compression":{"buffer":0,"byteOffset":21544,"byteLength":15761,"mode":"ATTRIBUTES","byteStride":8,"count":4034}}},{"buffer":1,"byteOffset":127408,"byteLength":16136,"target":34962,"byteStride":4,"extensions":{"EXT_meshopt_compression":{"buffer":0,"byteOffset":37308,"byteLength":7892,"mode":"ATTRIBUTES","filter":"OCTAHEDRAL","byteStride":4,"count":4034}}},{"buffer":1,"byteOffset":143544,"byteLength":6486996,"target":34963,"extensions":{"EXT_meshopt_compression":{"buffer":0,"byteOffset":45200,"byteLength":554218,"mode":"TRIANGLES","byteStride":4,"count":1621749}}},{"buffer":1,"byteOffset":6630540,"byteLength":3757084,"target":34962,"byteStride":4,"extensions":{"EXT_meshopt_compression":{"buffer":0,"byteOffset":599420,"byteLength":58741,"mode":"ATTRIBUTES","byteStride":4,"count":939271}}},{"buffer":1,"byteOffset":10387624,"byteLength":7514168,"target":34962,"byteStride":8,"extensions":{"EXT_meshopt_compression":{"buffer":0,"byteOffset":658164,"byteLength":3695059,"mode":"ATTRIBUTES","byteStride":8,"count":939271}}},{"buffer":1,"byteOffset":17901792,"byteLength":3757084,"target":34962,"byteStride":4,"extensions":{"EXT_meshopt_compression":{"buffer":0,"byteOffset":4353224,"byteLength":1887668,"mode":"ATTRIBUTES","filter":"OCTAHEDRAL","byteStride":4,"count":939271}}},{"buffer":1,"byteOffset":21658876,"byteLength":1764,"target":34962,"byteStride":4,"extensions":{"EXT_meshopt_compression":{"buffer":0,"byteOffset":6240892,"byteLength":61,"mode":"ATTRIBUTES","byteStride":4,"count":441}}},{"buffer":1,"byteOffset":21660640,"byteLength":3528,"target":34962,"byteStride":8,"extensions":{"EXT_meshopt_compression":{"buffer":0,"byteOffset":6240956,"byteLength":2033,"mode":"ATTRIBUTES","byteStride":8,"count":441}}},{"buffer":1,"byteOffset":21664168,"byteLength":1764,"target":34962,"byteStride":4,"extensions":{"EXT_meshopt_compression":{"buffer":0,"byteOffset":6242992,"byteLength":950,"mode":"ATTRIBUTES","filter":"OCTAHEDRAL","byteStride":4,"count":441}}},{"buffer":1,"byteOffset":21665932,"byteLength":6416,"target":34962,"byteStride":4,"extensions":{"EXT_meshopt_compression":{"buffer":0,"byteOffset":6243944,"byteLength":6231,"mode":"ATTRIBUTES","byteStride":4,"count":1604}}},{"buffer":1,"byteOffset":21672348,"byteLength":16136,"target":34962,"byteStride":4,"extensions":{"EXT_meshopt_compression":{"buffer":0,"byteOffset":6250176,"byteLength":12762,"mode":"ATTRIBUTES","byteStride":4,"count":4034}}},{"buffer":1,"byteOffset":21688484,"byteLength":3757084,"target":34962,"byteStride":4,"extensions":{"EXT_meshopt_compression":{"buffer":0,"byteOffset":6262940,"byteLength":3652783,"mode":"ATTRIBUTES","byteStride":4,"count":939271}}},{"buffer":1,"byteOffset":25445568,"byteLength":1764,"target":34962,"byteStride":4,"extensions":{"EXT_meshopt_compression":{"buffer":0,"byteOffset":9915724,"byteLength":1684,"mode":"ATTRIBUTES","byteStride":4,"count":441}}}],"buffers":[{"uri":"hero.bin","byteLength":9917408},{"byteLength":25447332,"extensions":{"EXT_meshopt_compression":{"fallback":true}}}],"materials":[{"name":"pine_tree_01_bark","pbrMetallicRoughness":{}},{"name":"pine_tree_01_trunk_a","pbrMetallicRoughness":{}},{"name":"pine_tree_01_twig","pbrMetallicRoughness":{}},{"name":"pine_tree_01_dead_branches","pbrMetallicRoughness":{}}],"meshes":[{"name":"NurbsPath.022","primitives":[{"attributes":{"COLOR_0":1,"POSITION":2,"NORMAL":3,"TEXCOORD_0":16},"mode":4,"material":0,"indices":0},{"attributes":{"COLOR_0":5,"POSITION":6,"NORMAL":7,"TEXCOORD_0":17},"mode":4,"material":1,"indices":4},{"attributes":{"COLOR_0":9,"POSITION":10,"NORMAL":11,"TEXCOORD_0":18},"mode":4,"material":2,"indices":8},{"attributes":{"COLOR_0":13,"POSITION":14,"NORMAL":15,"TEXCOORD_0":19},"mode":4,"material":3,"indices":12}]}],"nodes":[{"name":"Pine Tree 01 A","translation":[0.30954718589782715,10.103443935513496,-0.3201746940612793],"scale":[10.182906314730644,10.182906314730644,10.182906314730644],"mesh":0}],"scenes":[{"nodes":[0]}],"scene":0,"extensionsUsed":["EXT_meshopt_compression","KHR_mesh_quantization"],"extensionsRequired":["EXT_meshopt_compression","KHR_mesh_quantization"]}