{
  "asset": {
    "generator": "glTF-Transform v4.5.1",
    "version": "2.0"
  },
  "accessors": [
    {
      "type": "SCALAR",
      "componentType": 5123,
      "count": 89988,
      "normalized": false,
      "byteOffset": 0,
      "bufferView": 0
    },
    {
      "type": "VEC3",
      "componentType": 5126,
      "count": 15618,
      "max": [
        1.3522862195968628,
        1.4584896564483643,
        1.6756941080093384
      ],
      "min": [
        -1.054810881614685,
        -0.014703452587127686,
        -1.3895807266235352
      ],
      "normalized": false,
      "byteOffset": 0,
      "bufferView": 1
    },
    {
      "type": "VEC3",
      "componentType": 5126,
      "count": 15618,
      "normalized": false,
      "byteOffset": 0,
      "bufferView": 2
    },
    {
      "type": "VEC2",
      "componentType": 5126,
      "count": 15618,
      "normalized": false,
      "byteOffset": 0,
      "bufferView": 3
    }
  ],
  "bufferViews": [
    {
      "buffer": 1,
      "byteOffset": 0,
      "byteLength": 179976,
      "target": 34963,
      "extensions": {
        "EXT_meshopt_compression": {
          "buffer": 0,
          "byteOffset": 0,
          "byteLength": 35061,
          "mode": "TRIANGLES",
          "byteStride": 2,
          "count": 89988
        }
      }
    },
    {
      "buffer": 1,
      "byteOffset": 179976,
      "byteLength": 187416,
      "target": 34962,
      "byteStride": 12,
      "extensions": {
        "EXT_meshopt_compression": {
          "buffer": 0,
          "byteOffset": 35064,
          "byteLength": 137258,
          "mode": "ATTRIBUTES",
          "byteStride": 12,
          "count": 15618
        }
      }
    },
    {
      "buffer": 1,
      "byteOffset": 367392,
      "byteLength": 187416,
      "target": 34962,
      "byteStride": 12,
      "extensions": {
        "EXT_meshopt_compression": {
          "buffer": 0,
          "byteOffset": 172324,
          "byteLength": 158673,
          "mode": "ATTRIBUTES",
          "byteStride": 12,
          "count": 15618
        }
      }
    },
    {
      "buffer": 1,
      "byteOffset": 554808,
      "byteLength": 124944,
      "target": 34962,
      "byteStride": 8,
      "extensions": {
        "EXT_meshopt_compression": {
          "buffer": 0,
          "byteOffset": 331000,
          "byteLength": 82982,
          "mode": "ATTRIBUTES",
          "byteStride": 8,
          "count": 15618
        }
      }
    }
  ],
  "samplers": [
    {
      "magFilter": 9729,
      "minFilter": 9987,
      "wrapS": 10497,
      "wrapT": 10497
    }
  ],
  "textures": [
    {
      "sampler": 0,
      "extensions": {
        "EXT_texture_webp": {
          "source": 1
        }
      }
    },
    {
      "sampler": 0,
      "extensions": {
        "EXT_texture_webp": {
          "source": 0
        }
      }
    },
    {
      "sampler": 0,
      "extensions": {
        "EXT_texture_webp": {
          "source": 2
        }
      }
    }
  ],
  "images": [
    {
      "name": "boulder_03_nor_gl",
      "mimeType": "image/webp",
      "uri": "textures/namaqualand_boulder_03_nor_gl_2k.webp"
    },
    {
      "name": "boulder_03_diff",
      "mimeType": "image/webp",
      "uri": "textures/namaqualand_boulder_03_diff_2k.webp"
    },
    {
      "name": "boulder_03_rough",
      "mimeType": "image/webp",
      "uri": "textures/namaqualand_boulder_03_arm_2k.webp"
    }
  ],
  "buffers": [
    {
      "uri": "geometry.bin",
      "byteLength": 413984
    },
    {
      "byteLength": 679752,
      "extensions": {
        "EXT_meshopt_compression": {
          "fallback": true
        }
      }
    }
  ],
  "materials": [
    {
      "name": "boulder_03",
      "doubleSided": true,
      "pbrMetallicRoughness": {
        "metallicFactor": 0,
        "baseColorTexture": {
          "index": 0
        },
        "metallicRoughnessTexture": {
          "index": 2
        }
      },
      "normalTexture": {
        "index": 1
      }
    }
  ],
  "meshes": [
    {
      "name": "realCap_Model_2",
      "primitives": [
        {
          "attributes": {
            "POSITION": 1,
            "NORMAL": 2,
            "TEXCOORD_0": 3
          },
          "mode": 4,
          "material": 0,
          "indices": 0
        }
      ]
    }
  ],
  "nodes": [
    {
      "name": "boulder_03_LOD0",
      "mesh": 0
    }
  ],
  "scenes": [
    {
      "name": "Scene",
      "nodes": [
        0
      ]
    }
  ],
  "scene": 0,
  "extensionsUsed": [
    "EXT_meshopt_compression",
    "EXT_texture_webp"
  ],
  "extensionsRequired": [
    "EXT_meshopt_compression",
    "EXT_texture_webp"
  ]
}