{"asset":{"generator":"glTF-Transform v4.5.1","version":"2.0"},"accessors":[{"type":"SCALAR","componentType":5123,"count":1638,"normalized":false,"byteOffset":0,"bufferView":0},{"type":"VEC3","componentType":5126,"count":388,"max":[0.2531963288784027,1.1080386638641357,0.26755601167678833],"min":[-0.2750617563724518,-0.007901787757873535,-0.2920974791049957],"normalized":false,"byteOffset":0,"bufferView":1},{"type":"VEC2","componentType":5126,"count":388,"normalized":false,"byteOffset":0,"bufferView":2},{"type":"VEC3","componentType":5120,"count":388,"normalized":true,"byteOffset":0,"bufferView":3},{"type":"SCALAR","componentType":5125,"count":470568,"normalized":false,"byteOffset":0,"bufferView":4},{"type":"VEC3","componentType":5126,"count":186918,"max":[0.42418965697288513,1.2928361892700195,0.396030455827713],"min":[-0.43695688247680664,0.02356576919555664,-0.42620566487312317],"normalized":false,"byteOffset":0,"bufferView":5},{"type":"VEC2","componentType":5126,"count":186918,"normalized":false,"byteOffset":0,"bufferView":6},{"type":"VEC3","componentType":5120,"count":186918,"normalized":true,"byteOffset":0,"bufferView":7},{"type":"SCALAR","componentType":5123,"count":1530,"normalized":false,"byteOffset":3276,"bufferView":0},{"type":"VEC3","componentType":5126,"count":360,"max":[0.16692817211151123,0.8820494413375854,0.29256629943847656],"min":[-0.20628833770751953,-0.000009949319064617157,-0.29320934414863586],"normalized":false,"byteOffset":0,"bufferView":8},{"type":"VEC2","componentType":5126,"count":360,"normalized":false,"byteOffset":0,"bufferView":9},{"type":"VEC3","componentType":5120,"count":360,"normalized":true,"byteOffset":0,"bufferView":10},{"type":"SCALAR","componentType":5125,"count":451098,"normalized":false,"byteOffset":1882272,"bufferView":4},{"type":"VEC3","componentType":5126,"count":179220,"max":[0.31415098905563354,0.9515835642814636,0.3871777057647705],"min":[-0.32576000690460205,0.03145759180188179,-0.4303826093673706],"normalized":false,"byteOffset":0,"bufferView":11},{"type":"VEC2","componentType":5126,"count":179220,"normalized":false,"byteOffset":0,"bufferView":12},{"type":"VEC3","componentType":5120,"count":179220,"normalized":true,"byteOffset":0,"bufferView":13},{"type":"SCALAR","componentType":5123,"count":1152,"normalized":false,"byteOffset":6336,"bufferView":0},{"type":"VEC3","componentType":5126,"count":268,"max":[0.20513582229614258,0.6192036271095276,0.158901646733284],"min":[-0.2061556577682495,-0.00007270835340023041,-0.2918061912059784],"normalized":false,"byteOffset":0,"bufferView":14},{"type":"VEC2","componentType":5126,"count":268,"normalized":false,"byteOffset":0,"bufferView":15},{"type":"VEC3","componentType":5120,"count":268,"normalized":true,"byteOffset":0,"bufferView":16},{"type":"SCALAR","componentType":5125,"count":373077,"normalized":false,"byteOffset":3686664,"bufferView":4},{"type":"VEC3","componentType":5126,"count":148145,"max":[0.3057711124420166,0.735627293586731,0.31407177448272705],"min":[-0.31641829013824463,0.03462404012680054,-0.3199334442615509],"normalized":false,"byteOffset":0,"bufferView":17},{"type":"VEC2","componentType":5126,"count":148145,"normalized":false,"byteOffset":0,"bufferView":18},{"type":"VEC3","componentType":5120,"count":148145,"normalized":true,"byteOffset":0,"bufferView":19}],"bufferViews":[{"buffer":1,"byteOffset":0,"byteLength":8640,"target":34963,"extensions":{"EXT_meshopt_compression":{"buffer":0,"byteOffset":0,"byteLength":1589,"mode":"TRIANGLES","byteStride":2,"count":4320}}},{"buffer":1,"byteOffset":8640,"byteLength":4656,"target":34962,"byteStride":12,"extensions":{"EXT_meshopt_compression":{"buffer":0,"byteOffset":1592,"byteLength":3955,"mode":"ATTRIBUTES","byteStride":12,"count":388}}},{"buffer":1,"byteOffset":13296,"byteLength":3104,"target":34962,"byteStride":8,"extensions":{"EXT_meshopt_compression":{"buffer":0,"byteOffset":5548,"byteLength":2336,"mode":"ATTRIBUTES","byteStride":8,"count":388}}},{"buffer":1,"byteOffset":16400,"byteLength":1552,"target":34962,"byteStride":4,"extensions":{"EXT_meshopt_compression":{"buffer":0,"byteOffset":7884,"byteLength":827,"mode":"ATTRIBUTES","filter":"OCTAHEDRAL","byteStride":4,"count":388}}},{"buffer":1,"byteOffset":17952,"byteLength":5178972,"target":34963,"extensions":{"EXT_meshopt_compression":{"buffer":0,"byteOffset":8712,"byteLength":433594,"mode":"TRIANGLES","byteStride":4,"count":1294743}}},{"buffer":1,"byteOffset":5196924,"byteLength":2243016,"target":34962,"byteStride":12,"extensions":{"EXT_meshopt_compression":{"buffer":0,"byteOffset":442308,"byteLength":1535961,"mode":"ATTRIBUTES","byteStride":12,"count":186918}}},{"buffer":1,"byteOffset":7439940,"byteLength":1495344,"target":34962,"byteStride":8,"extensions":{"EXT_meshopt_compression":{"buffer":0,"byteOffset":1978272,"byteLength":1061581,"mode":"ATTRIBUTES","byteStride":8,"count":186918}}},{"buffer":1,"byteOffset":8935284,"byteLength":747672,"target":34962,"byteStride":4,"extensions":{"EXT_meshopt_compression":{"buffer":0,"byteOffset":3039856,"byteLength":295062,"mode":"ATTRIBUTES","filter":"OCTAHEDRAL","byteStride":4,"count":186918}}},{"buffer":1,"byteOffset":9682956,"byteLength":4320,"target":34962,"byteStride":12,"extensions":{"EXT_meshopt_compression":{"buffer":0,"byteOffset":3334920,"byteLength":3629,"mode":"ATTRIBUTES","byteStride":12,"count":360}}},{"buffer":1,"byteOffset":9687276,"byteLength":2880,"target":34962,"byteStride":8,"extensions":{"EXT_meshopt_compression":{"buffer":0,"byteOffset":3338552,"byteLength":2148,"mode":"ATTRIBUTES","byteStride":8,"count":360}}},{"buffer":1,"byteOffset":9690156,"byteLength":1440,"target":34962,"byteStride":4,"extensions":{"EXT_meshopt_compression":{"buffer":0,"byteOffset":3340700,"byteLength":775,"mode":"ATTRIBUTES","filter":"OCTAHEDRAL","byteStride":4,"count":360}}},{"buffer":1,"byteOffset":9691596,"byteLength":2150640,"target":34962,"byteStride":12,"extensions":{"EXT_meshopt_compression":{"buffer":0,"byteOffset":3341476,"byteLength":1458706,"mode":"ATTRIBUTES","byteStride":12,"count":179220}}},{"buffer":1,"byteOffset":11842236,"byteLength":1433760,"target":34962,"byteStride":8,"extensions":{"EXT_meshopt_compression":{"buffer":0,"byteOffset":4800184,"byteLength":1017837,"mode":"ATTRIBUTES","byteStride":8,"count":179220}}},{"buffer":1,"byteOffset":13275996,"byteLength":716880,"target":34962,"byteStride":4,"extensions":{"EXT_meshopt_compression":{"buffer":0,"byteOffset":5818024,"byteLength":282670,"mode":"ATTRIBUTES","filter":"OCTAHEDRAL","byteStride":4,"count":179220}}},{"buffer":1,"byteOffset":13992876,"byteLength":3216,"target":34962,"byteStride":12,"extensions":{"EXT_meshopt_compression":{"buffer":0,"byteOffset":6100696,"byteLength":2771,"mode":"ATTRIBUTES","byteStride":12,"count":268}}},{"buffer":1,"byteOffset":13996092,"byteLength":2144,"target":34962,"byteStride":8,"extensions":{"EXT_meshopt_compression":{"buffer":0,"byteOffset":6103468,"byteLength":1640,"mode":"ATTRIBUTES","byteStride":8,"count":268}}},{"buffer":1,"byteOffset":13998236,"byteLength":1072,"target":34962,"byteStride":4,"extensions":{"EXT_meshopt_compression":{"buffer":0,"byteOffset":6105108,"byteLength":585,"mode":"ATTRIBUTES","filter":"OCTAHEDRAL","byteStride":4,"count":268}}},{"buffer":1,"byteOffset":13999308,"byteLength":1777740,"target":34962,"byteStride":12,"extensions":{"EXT_meshopt_compression":{"buffer":0,"byteOffset":6105696,"byteLength":1213399,"mode":"ATTRIBUTES","byteStride":12,"count":148145}}},{"buffer":1,"byteOffset":15777048,"byteLength":1185160,"target":34962,"byteStride":8,"extensions":{"EXT_meshopt_compression":{"buffer":0,"byteOffset":7319096,"byteLength":841375,"mode":"ATTRIBUTES","byteStride":8,"count":148145}}},{"buffer":1,"byteOffset":16962208,"byteLength":592580,"target":34962,"byteStride":4,"extensions":{"EXT_meshopt_compression":{"buffer":0,"byteOffset":8160472,"byteLength":233740,"mode":"ATTRIBUTES","filter":"OCTAHEDRAL","byteStride":4,"count":148145}}}],"samplers":[{"magFilter":9729,"minFilter":9987,"wrapS":10497,"wrapT":10497}],"textures":[{"sampler":0,"extensions":{"KHR_texture_basisu":{"source":1}}},{"sampler":0,"extensions":{"KHR_texture_basisu":{"source":0}}},{"sampler":0,"extensions":{"KHR_texture_basisu":{"source":2}}},{"sampler":0,"extensions":{"KHR_texture_basisu":{"source":4}}},{"sampler":0,"extensions":{"KHR_texture_basisu":{"source":3}}},{"sampler":0,"extensions":{"KHR_texture_basisu":{"source":5}}}],"images":[{"name":"fir_sapling_branches_nor_gl","mimeType":"image/ktx2","uri":"textures/fir_sapling_branches_nor_gl.ktx2"},{"name":"fir_sapling_branches_diff","mimeType":"image/ktx2","uri":"textures/fir_sapling_branches_diff.ktx2"},{"name":"fir_sapling_branches_rough","mimeType":"image/ktx2","uri":"textures/fir_sapling_branches_rough.ktx2"},{"name":"fir_sapling_twigs_nor_gl","mimeType":"image/ktx2","uri":"textures/fir_sapling_twigs_nor_gl.ktx2"},{"name":"fir_sapling_twigs_diff","mimeType":"image/ktx2","uri":"textures/fir_sapling_twigs_diff.ktx2"},{"name":"fir_sapling_twigs_rough","mimeType":"image/ktx2","uri":"textures/fir_sapling_twigs_rough.ktx2"}],"buffers":[{"uri":"model.bin","byteLength":8394212},{"byteLength":17554788,"extensions":{"EXT_meshopt_compression":{"fallback":true}}}],"materials":[{"name":"fir_sapling_branches","doubleSided":true,"pbrMetallicRoughness":{"metallicFactor":0,"baseColorTexture":{"index":0},"metallicRoughnessTexture":{"index":2}},"normalTexture":{"index":1}},{"name":"fir_sapling_twigs","doubleSided":true,"pbrMetallicRoughness":{"metallicFactor":0,"baseColorTexture":{"index":3},"metallicRoughnessTexture":{"index":5}},"normalTexture":{"index":4},"extensions":{"KHR_materials_ior":{"ior":1.4500000476837158},"KHR_materials_specular":{"specularColorFactor":[0.05309009571385226,0.05309009571385226,0.05309009571385226]}}}],"meshes":[{"name":"Cylinder","primitives":[{"attributes":{"POSITION":1,"TEXCOORD_0":2,"NORMAL":3},"mode":4,"material":0,"indices":0},{"attributes":{"POSITION":5,"TEXCOORD_0":6,"NORMAL":7},"mode":4,"material":1,"indices":4}]},{"name":"Cylinder.069","primitives":[{"attributes":{"POSITION":9,"TEXCOORD_0":10,"NORMAL":11},"mode":4,"material":0,"indices":8},{"attributes":{"POSITION":13,"TEXCOORD_0":14,"NORMAL":15},"mode":4,"material":1,"indices":12}]},{"name":"Cylinder.125","primitives":[{"attributes":{"POSITION":17,"TEXCOORD_0":18,"NORMAL":19},"mode":4,"material":0,"indices":16},{"attributes":{"POSITION":21,"TEXCOORD_0":22,"NORMAL":23},"mode":4,"material":1,"indices":20}]}],"nodes":[{"name":"fir_sapling_a","mesh":0},{"name":"fir_sapling_b","translation":[1,0,0],"mesh":1},{"name":"fir_sapling_c","translation":[2,0,0],"mesh":2}],"scenes":[{"name":"Scene","nodes":[0,1,2]}],"scene":0,"extensionsUsed":["EXT_meshopt_compression","KHR_materials_ior","KHR_materials_specular","KHR_texture_basisu"],"extensionsRequired":["EXT_meshopt_compression","KHR_texture_basisu"]}