{
  "asset": {
    "generator": "glTF-Transform v4.5.1",
    "version": "2.0"
  },
  "accessors": [
    {
      "type": "SCALAR",
      "componentType": 5123,
      "count": 2142,
      "normalized": false,
      "byteOffset": 0,
      "bufferView": 0
    },
    {
      "type": "VEC3",
      "componentType": 5126,
      "count": 645,
      "max": [
        0.06355194747447968,
        0.15409204363822937,
        0.06318891793489456
      ],
      "min": [
        -0.05556991323828697,
        -0.002838333137333393,
        -0.056573495268821716
      ],
      "normalized": false,
      "byteOffset": 0,
      "bufferView": 1
    },
    {
      "type": "VEC3",
      "componentType": 5126,
      "count": 645,
      "normalized": false,
      "byteOffset": 0,
      "bufferView": 2
    },
    {
      "type": "VEC2",
      "componentType": 5126,
      "count": 645,
      "normalized": false,
      "byteOffset": 0,
      "bufferView": 3
    }
  ],
  "bufferViews": [
    {
      "buffer": 1,
      "byteOffset": 0,
      "byteLength": 4284,
      "target": 34963,
      "extensions": {
        "EXT_meshopt_compression": {
          "buffer": 0,
          "byteOffset": 0,
          "byteLength": 766,
          "mode": "TRIANGLES",
          "byteStride": 2,
          "count": 2142
        }
      }
    },
    {
      "buffer": 1,
      "byteOffset": 4284,
      "byteLength": 7740,
      "target": 34962,
      "byteStride": 12,
      "extensions": {
        "EXT_meshopt_compression": {
          "buffer": 0,
          "byteOffset": 768,
          "byteLength": 6471,
          "mode": "ATTRIBUTES",
          "byteStride": 12,
          "count": 645
        }
      }
    },
    {
      "buffer": 1,
      "byteOffset": 12024,
      "byteLength": 7740,
      "target": 34962,
      "byteStride": 12,
      "extensions": {
        "EXT_meshopt_compression": {
          "buffer": 0,
          "byteOffset": 7240,
          "byteLength": 6630,
          "mode": "ATTRIBUTES",
          "byteStride": 12,
          "count": 645
        }
      }
    },
    {
      "buffer": 1,
      "byteOffset": 19764,
      "byteLength": 5160,
      "target": 34962,
      "byteStride": 8,
      "extensions": {
        "EXT_meshopt_compression": {
          "buffer": 0,
          "byteOffset": 13872,
          "byteLength": 3786,
          "mode": "ATTRIBUTES",
          "byteStride": 8,
          "count": 645
        }
      }
    }
  ],
  "samplers": [
    {
      "magFilter": 9729,
      "minFilter": 9987,
      "wrapS": 10497,
      "wrapT": 10497
    }
  ],
  "textures": [
    {
      "source": 1,
      "sampler": 0
    },
    {
      "source": 0,
      "sampler": 0
    },
    {
      "source": 2,
      "sampler": 0
    }
  ],
  "images": [
    {
      "name": "grass_medium_02_nor_gl",
      "mimeType": "image/jpeg",
      "uri": "textures/grass_medium_02_nor_gl_2k.jpg"
    },
    {
      "name": "grass_medium_02_diff-grass_medium_02_alpha",
      "mimeType": "image/jpeg",
      "uri": "textures/grass_medium_02_diff_2k.jpg"
    },
    {
      "name": "grass_medium_02_rough",
      "mimeType": "image/jpeg",
      "uri": "textures/grass_medium_02_arm_2k.jpg"
    }
  ],
  "buffers": [
    {
      "uri": "geometry.bin",
      "byteLength": 17660
    },
    {
      "byteLength": 24924,
      "extensions": {
        "EXT_meshopt_compression": {
          "fallback": true
        }
      }
    }
  ],
  "materials": [
    {
      "name": "grass_medium_02",
      "alphaMode": "BLEND",
      "doubleSided": true,
      "pbrMetallicRoughness": {
        "metallicFactor": 0,
        "baseColorTexture": {
          "index": 0
        },
        "metallicRoughnessTexture": {
          "index": 2
        }
      },
      "normalTexture": {
        "index": 1
      }
    }
  ],
  "meshes": [
    {
      "name": "Plane.001",
      "primitives": [
        {
          "attributes": {
            "POSITION": 1,
            "NORMAL": 2,
            "TEXCOORD_0": 3
          },
          "mode": 4,
          "material": 0,
          "indices": 0
        }
      ]
    }
  ],
  "nodes": [
    {
      "name": "grass_medium_02_a",
      "mesh": 0
    }
  ],
  "scenes": [
    {
      "name": "Scene",
      "nodes": [
        0
      ]
    }
  ],
  "scene": 0,
  "extensionsUsed": [
    "EXT_meshopt_compression"
  ],
  "extensionsRequired": [
    "EXT_meshopt_compression"
  ]
}