{
  "asset": {
    "generator": "glTF-Transform v4.5.1",
    "version": "2.0"
  },
  "accessors": [
    {
      "type": "SCALAR",
      "componentType": 5123,
      "count": 6600,
      "normalized": false,
      "byteOffset": 0,
      "bufferView": 0
    },
    {
      "type": "VEC3",
      "componentType": 5126,
      "count": 1427,
      "max": [
        1.1236112117767334,
        0.8161294460296631,
        1.6677640676498413
      ],
      "min": [
        -1.1140209436416626,
        -0.6565686464309692,
        -1.6965996026992798
      ],
      "normalized": false,
      "byteOffset": 0,
      "bufferView": 1
    },
    {
      "type": "VEC3",
      "componentType": 5126,
      "count": 1427,
      "normalized": false,
      "byteOffset": 0,
      "bufferView": 2
    },
    {
      "type": "VEC2",
      "componentType": 5126,
      "count": 1427,
      "normalized": false,
      "byteOffset": 0,
      "bufferView": 3
    },
    {
      "type": "SCALAR",
      "componentType": 5123,
      "count": 6576,
      "normalized": false,
      "byteOffset": 13200,
      "bufferView": 0
    },
    {
      "type": "VEC3",
      "componentType": 5126,
      "count": 1508,
      "max": [
        1.3823258876800537,
        0.7963716983795166,
        1.609394907951355
      ],
      "min": [
        -1.2656888961791992,
        -0.4656194746494293,
        -1.6285440921783447
      ],
      "normalized": false,
      "byteOffset": 0,
      "bufferView": 4
    },
    {
      "type": "VEC3",
      "componentType": 5126,
      "count": 1508,
      "normalized": false,
      "byteOffset": 0,
      "bufferView": 5
    },
    {
      "type": "VEC2",
      "componentType": 5126,
      "count": 1508,
      "normalized": false,
      "byteOffset": 0,
      "bufferView": 6
    },
    {
      "type": "SCALAR",
      "componentType": 5123,
      "count": 3000,
      "normalized": false,
      "byteOffset": 26352,
      "bufferView": 0
    },
    {
      "type": "VEC3",
      "componentType": 5126,
      "count": 665,
      "max": [
        1.0905829668045044,
        0.6888222694396973,
        1.0559659004211426
      ],
      "min": [
        -1.0175503492355347,
        -0.4059043228626251,
        -1.0223839282989502
      ],
      "normalized": false,
      "byteOffset": 0,
      "bufferView": 7
    },
    {
      "type": "VEC3",
      "componentType": 5126,
      "count": 665,
      "normalized": false,
      "byteOffset": 0,
      "bufferView": 8
    },
    {
      "type": "VEC2",
      "componentType": 5126,
      "count": 665,
      "normalized": false,
      "byteOffset": 0,
      "bufferView": 9
    },
    {
      "type": "SCALAR",
      "componentType": 5123,
      "count": 6348,
      "normalized": false,
      "byteOffset": 32352,
      "bufferView": 0
    },
    {
      "type": "VEC3",
      "componentType": 5126,
      "count": 1305,
      "max": [
        1.1773505210876465,
        1.1073492765426636,
        1.0748220682144165
      ],
      "min": [
        -0.9502788186073303,
        -0.6557974815368652,
        -0.8874189853668213
      ],
      "normalized": false,
      "byteOffset": 0,
      "bufferView": 10
    },
    {
      "type": "VEC3",
      "componentType": 5126,
      "count": 1305,
      "normalized": false,
      "byteOffset": 0,
      "bufferView": 11
    },
    {
      "type": "VEC2",
      "componentType": 5126,
      "count": 1305,
      "normalized": false,
      "byteOffset": 0,
      "bufferView": 12
    },
    {
      "type": "SCALAR",
      "componentType": 5123,
      "count": 9924,
      "normalized": false,
      "byteOffset": 45048,
      "bufferView": 0
    },
    {
      "type": "VEC3",
      "componentType": 5126,
      "count": 1841,
      "max": [
        0.9560464024543762,
        0.6322999000549316,
        1.6477245092391968
      ],
      "min": [
        -0.8577376008033752,
        -0.5725544691085815,
        -1.3499506711959839
      ],
      "normalized": false,
      "byteOffset": 0,
      "bufferView": 13
    },
    {
      "type": "VEC3",
      "componentType": 5126,
      "count": 1841,
      "normalized": false,
      "byteOffset": 0,
      "bufferView": 14
    },
    {
      "type": "VEC2",
      "componentType": 5126,
      "count": 1841,
      "normalized": false,
      "byteOffset": 0,
      "bufferView": 15
    },
    {
      "type": "SCALAR",
      "componentType": 5123,
      "count": 5394,
      "normalized": false,
      "byteOffset": 64896,
      "bufferView": 0
    },
    {
      "type": "VEC3",
      "componentType": 5126,
      "count": 1071,
      "max": [
        0.9252050518989563,
        0.730792224407196,
        1.277156949043274
      ],
      "min": [
        -1.2007771730422974,
        -0.5280566811561584,
        -1.476038932800293
      ],
      "normalized": false,
      "byteOffset": 0,
      "bufferView": 16
    },
    {
      "type": "VEC3",
      "componentType": 5126,
      "count": 1071,
      "normalized": false,
      "byteOffset": 0,
      "bufferView": 17
    },
    {
      "type": "VEC2",
      "componentType": 5126,
      "count": 1071,
      "normalized": false,
      "byteOffset": 0,
      "bufferView": 18
    }
  ],
  "bufferViews": [
    {
      "buffer": 1,
      "byteOffset": 0,
      "byteLength": 75684,
      "target": 34963,
      "extensions": {
        "EXT_meshopt_compression": {
          "buffer": 0,
          "byteOffset": 0,
          "byteLength": 14443,
          "mode": "TRIANGLES",
          "byteStride": 2,
          "count": 37842
        }
      }
    },
    {
      "buffer": 1,
      "byteOffset": 75684,
      "byteLength": 17124,
      "target": 34962,
      "byteStride": 12,
      "extensions": {
        "EXT_meshopt_compression": {
          "buffer": 0,
          "byteOffset": 14444,
          "byteLength": 14175,
          "mode": "ATTRIBUTES",
          "byteStride": 12,
          "count": 1427
        }
      }
    },
    {
      "buffer": 1,
      "byteOffset": 92808,
      "byteLength": 17124,
      "target": 34962,
      "byteStride": 12,
      "extensions": {
        "EXT_meshopt_compression": {
          "buffer": 0,
          "byteOffset": 28620,
          "byteLength": 14990,
          "mode": "ATTRIBUTES",
          "byteStride": 12,
          "count": 1427
        }
      }
    },
    {
      "buffer": 1,
      "byteOffset": 109932,
      "byteLength": 11416,
      "target": 34962,
      "byteStride": 8,
      "extensions": {
        "EXT_meshopt_compression": {
          "buffer": 0,
          "byteOffset": 43612,
          "byteLength": 8577,
          "mode": "ATTRIBUTES",
          "byteStride": 8,
          "count": 1427
        }
      }
    },
    {
      "buffer": 1,
      "byteOffset": 121348,
      "byteLength": 18096,
      "target": 34962,
      "byteStride": 12,
      "extensions": {
        "EXT_meshopt_compression": {
          "buffer": 0,
          "byteOffset": 52192,
          "byteLength": 14879,
          "mode": "ATTRIBUTES",
          "byteStride": 12,
          "count": 1508
        }
      }
    },
    {
      "buffer": 1,
      "byteOffset": 139444,
      "byteLength": 18096,
      "target": 34962,
      "byteStride": 12,
      "extensions": {
        "EXT_meshopt_compression": {
          "buffer": 0,
          "byteOffset": 67072,
          "byteLength": 15847,
          "mode": "ATTRIBUTES",
          "byteStride": 12,
          "count": 1508
        }
      }
    },
    {
      "buffer": 1,
      "byteOffset": 157540,
      "byteLength": 12064,
      "target": 34962,
      "byteStride": 8,
      "extensions": {
        "EXT_meshopt_compression": {
          "buffer": 0,
          "byteOffset": 82920,
          "byteLength": 8479,
          "mode": "ATTRIBUTES",
          "byteStride": 8,
          "count": 1508
        }
      }
    },
    {
      "buffer": 1,
      "byteOffset": 169604,
      "byteLength": 7980,
      "target": 34962,
      "byteStride": 12,
      "extensions": {
        "EXT_meshopt_compression": {
          "buffer": 0,
          "byteOffset": 91400,
          "byteLength": 6698,
          "mode": "ATTRIBUTES",
          "byteStride": 12,
          "count": 665
        }
      }
    },
    {
      "buffer": 1,
      "byteOffset": 177584,
      "byteLength": 7980,
      "target": 34962,
      "byteStride": 12,
      "extensions": {
        "EXT_meshopt_compression": {
          "buffer": 0,
          "byteOffset": 98100,
          "byteLength": 7069,
          "mode": "ATTRIBUTES",
          "byteStride": 12,
          "count": 665
        }
      }
    },
    {
      "buffer": 1,
      "byteOffset": 185564,
      "byteLength": 5320,
      "target": 34962,
      "byteStride": 8,
      "extensions": {
        "EXT_meshopt_compression": {
          "buffer": 0,
          "byteOffset": 105172,
          "byteLength": 3828,
          "mode": "ATTRIBUTES",
          "byteStride": 8,
          "count": 665
        }
      }
    },
    {
      "buffer": 1,
      "byteOffset": 190884,
      "byteLength": 15660,
      "target": 34962,
      "byteStride": 12,
      "extensions": {
        "EXT_meshopt_compression": {
          "buffer": 0,
          "byteOffset": 109000,
          "byteLength": 13038,
          "mode": "ATTRIBUTES",
          "byteStride": 12,
          "count": 1305
        }
      }
    },
    {
      "buffer": 1,
      "byteOffset": 206544,
      "byteLength": 15660,
      "target": 34962,
      "byteStride": 12,
      "extensions": {
        "EXT_meshopt_compression": {
          "buffer": 0,
          "byteOffset": 122040,
          "byteLength": 13592,
          "mode": "ATTRIBUTES",
          "byteStride": 12,
          "count": 1305
        }
      }
    },
    {
      "buffer": 1,
      "byteOffset": 222204,
      "byteLength": 10440,
      "target": 34962,
      "byteStride": 8,
      "extensions": {
        "EXT_meshopt_compression": {
          "buffer": 0,
          "byteOffset": 135632,
          "byteLength": 7398,
          "mode": "ATTRIBUTES",
          "byteStride": 8,
          "count": 1305
        }
      }
    },
    {
      "buffer": 1,
      "byteOffset": 232644,
      "byteLength": 22092,
      "target": 34962,
      "byteStride": 12,
      "extensions": {
        "EXT_meshopt_compression": {
          "buffer": 0,
          "byteOffset": 143032,
          "byteLength": 17813,
          "mode": "ATTRIBUTES",
          "byteStride": 12,
          "count": 1841
        }
      }
    },
    {
      "buffer": 1,
      "byteOffset": 254736,
      "byteLength": 22092,
      "target": 34962,
      "byteStride": 12,
      "extensions": {
        "EXT_meshopt_compression": {
          "buffer": 0,
          "byteOffset": 160848,
          "byteLength": 18882,
          "mode": "ATTRIBUTES",
          "byteStride": 12,
          "count": 1841
        }
      }
    },
    {
      "buffer": 1,
      "byteOffset": 276828,
      "byteLength": 14728,
      "target": 34962,
      "byteStride": 8,
      "extensions": {
        "EXT_meshopt_compression": {
          "buffer": 0,
          "byteOffset": 179732,
          "byteLength": 9592,
          "mode": "ATTRIBUTES",
          "byteStride": 8,
          "count": 1841
        }
      }
    },
    {
      "buffer": 1,
      "byteOffset": 291556,
      "byteLength": 12852,
      "target": 34962,
      "byteStride": 12,
      "extensions": {
        "EXT_meshopt_compression": {
          "buffer": 0,
          "byteOffset": 189324,
          "byteLength": 10688,
          "mode": "ATTRIBUTES",
          "byteStride": 12,
          "count": 1071
        }
      }
    },
    {
      "buffer": 1,
      "byteOffset": 304408,
      "byteLength": 12852,
      "target": 34962,
      "byteStride": 12,
      "extensions": {
        "EXT_meshopt_compression": {
          "buffer": 0,
          "byteOffset": 200012,
          "byteLength": 11167,
          "mode": "ATTRIBUTES",
          "byteStride": 12,
          "count": 1071
        }
      }
    },
    {
      "buffer": 1,
      "byteOffset": 317260,
      "byteLength": 8568,
      "target": 34962,
      "byteStride": 8,
      "extensions": {
        "EXT_meshopt_compression": {
          "buffer": 0,
          "byteOffset": 211180,
          "byteLength": 5627,
          "mode": "ATTRIBUTES",
          "byteStride": 8,
          "count": 1071
        }
      }
    }
  ],
  "buffers": [
    {
      "uri": "lod1.bin",
      "byteLength": 216808
    },
    {
      "byteLength": 325828,
      "extensions": {
        "EXT_meshopt_compression": {
          "fallback": true
        }
      }
    }
  ],
  "meshes": [
    {
      "name": "modelShape.005",
      "primitives": [
        {
          "attributes": {
            "POSITION": 1,
            "NORMAL": 2,
            "TEXCOORD_0": 3
          },
          "mode": 4,
          "indices": 0
        }
      ]
    },
    {
      "name": "modelShape.002",
      "primitives": [
        {
          "attributes": {
            "POSITION": 5,
            "NORMAL": 6,
            "TEXCOORD_0": 7
          },
          "mode": 4,
          "indices": 4
        }
      ]
    },
    {
      "name": "modelShape",
      "primitives": [
        {
          "attributes": {
            "POSITION": 9,
            "NORMAL": 10,
            "TEXCOORD_0": 11
          },
          "mode": 4,
          "indices": 8
        }
      ]
    },
    {
      "name": "medium.001",
      "primitives": [
        {
          "attributes": {
            "POSITION": 13,
            "NORMAL": 14,
            "TEXCOORD_0": 15
          },
          "mode": 4,
          "indices": 12
        }
      ]
    },
    {
      "name": "modelShape.003",
      "primitives": [
        {
          "attributes": {
            "POSITION": 17,
            "NORMAL": 18,
            "TEXCOORD_0": 19
          },
          "mode": 4,
          "indices": 16
        }
      ]
    },
    {
      "name": "mesh1-geometry.003",
      "primitives": [
        {
          "attributes": {
            "POSITION": 21,
            "NORMAL": 22,
            "TEXCOORD_0": 23
          },
          "mode": 4,
          "indices": 20
        }
      ]
    }
  ],
  "nodes": [
    {
      "name": "rock_moss_set_01_rock01",
      "translation": [
        -2.799999952316284,
        0,
        -2.122781276702881
      ],
      "mesh": 0
    },
    {
      "name": "rock_moss_set_01_rock02",
      "translation": [
        0,
        0,
        -2.122781276702881
      ],
      "mesh": 1
    },
    {
      "name": "rock_moss_set_01_rock03",
      "translation": [
        3,
        0,
        -2.122781276702881
      ],
      "mesh": 2
    },
    {
      "name": "rock_moss_set_01_rock04",
      "translation": [
        -2.700000047683716,
        0,
        1.5772186517715454
      ],
      "mesh": 3
    },
    {
      "name": "rock_moss_set_01_rock05",
      "translation": [
        0.15000000596046448,
        0,
        1.4772186279296875
      ],
      "mesh": 4
    },
    {
      "name": "rock_moss_set_01_rock06",
      "translation": [
        2.799999952316284,
        0,
        1.5772186517715454
      ],
      "mesh": 5
    }
  ],
  "scenes": [
    {
      "name": "Scene",
      "nodes": [
        0,
        1,
        2,
        3,
        4,
        5
      ]
    }
  ],
  "scene": 0,
  "extensionsUsed": [
    "EXT_meshopt_compression"
  ],
  "extensionsRequired": [
    "EXT_meshopt_compression"
  ]
}