{
  "asset": {
    "generator": "glTF-Transform v4.5.1",
    "version": "2.0"
  },
  "accessors": [
    {
      "type": "SCALAR",
      "componentType": 5123,
      "count": 44532,
      "normalized": false,
      "byteOffset": 0,
      "bufferView": 0
    },
    {
      "type": "VEC4",
      "componentType": 5126,
      "count": 7914,
      "normalized": false,
      "byteOffset": 0,
      "bufferView": 1
    },
    {
      "type": "VEC3",
      "componentType": 5126,
      "count": 7914,
      "max": [
        0.08130179345607758,
        0.1418129950761795,
        0.14230197668075562
      ],
      "min": [
        -0.0875801146030426,
        -0.00190715491771698,
        -0.17797498404979706
      ],
      "normalized": false,
      "byteOffset": 0,
      "bufferView": 2
    },
    {
      "type": "VEC3",
      "componentType": 5126,
      "count": 7914,
      "normalized": false,
      "byteOffset": 0,
      "bufferView": 3
    },
    {
      "type": "VEC2",
      "componentType": 5126,
      "count": 7914,
      "normalized": false,
      "byteOffset": 0,
      "bufferView": 4
    }
  ],
  "bufferViews": [
    {
      "buffer": 1,
      "byteOffset": 0,
      "byteLength": 89064,
      "target": 34963,
      "extensions": {
        "EXT_meshopt_compression": {
          "buffer": 0,
          "byteOffset": 0,
          "byteLength": 17159,
          "mode": "TRIANGLES",
          "byteStride": 2,
          "count": 44532
        }
      }
    },
    {
      "buffer": 1,
      "byteOffset": 89064,
      "byteLength": 126624,
      "target": 34962,
      "byteStride": 16,
      "extensions": {
        "EXT_meshopt_compression": {
          "buffer": 0,
          "byteOffset": 17160,
          "byteLength": 77929,
          "mode": "ATTRIBUTES",
          "byteStride": 16,
          "count": 7914
        }
      }
    },
    {
      "buffer": 1,
      "byteOffset": 215688,
      "byteLength": 94968,
      "target": 34962,
      "byteStride": 12,
      "extensions": {
        "EXT_meshopt_compression": {
          "buffer": 0,
          "byteOffset": 95092,
          "byteLength": 71766,
          "mode": "ATTRIBUTES",
          "byteStride": 12,
          "count": 7914
        }
      }
    },
    {
      "buffer": 1,
      "byteOffset": 310656,
      "byteLength": 94968,
      "target": 34962,
      "byteStride": 12,
      "extensions": {
        "EXT_meshopt_compression": {
          "buffer": 0,
          "byteOffset": 166860,
          "byteLength": 79991,
          "mode": "ATTRIBUTES",
          "byteStride": 12,
          "count": 7914
        }
      }
    },
    {
      "buffer": 1,
      "byteOffset": 405624,
      "byteLength": 63312,
      "target": 34962,
      "byteStride": 8,
      "extensions": {
        "EXT_meshopt_compression": {
          "buffer": 0,
          "byteOffset": 246852,
          "byteLength": 42652,
          "mode": "ATTRIBUTES",
          "byteStride": 8,
          "count": 7914
        }
      }
    }
  ],
  "samplers": [
    {
      "magFilter": 9729,
      "minFilter": 9987,
      "wrapS": 10497,
      "wrapT": 10497
    }
  ],
  "textures": [
    {
      "source": 1,
      "sampler": 0
    },
    {
      "source": 0,
      "sampler": 0
    },
    {
      "source": 2,
      "sampler": 0
    }
  ],
  "images": [
    {
      "name": "rock_07_nor_gl",
      "mimeType": "image/jpeg",
      "uri": "textures/rock_07_nor_gl_4k.jpg"
    },
    {
      "name": "rock_07_diff",
      "mimeType": "image/jpeg",
      "uri": "textures/rock_07_diff_4k.jpg"
    },
    {
      "name": "rock_07_rough",
      "mimeType": "image/jpeg",
      "uri": "textures/rock_07_arm_4k.jpg"
    }
  ],
  "buffers": [
    {
      "uri": "geometry.bin",
      "byteLength": 289504
    },
    {
      "byteLength": 468936,
      "extensions": {
        "EXT_meshopt_compression": {
          "fallback": true
        }
      }
    }
  ],
  "materials": [
    {
      "name": "rock_07",
      "doubleSided": true,
      "pbrMetallicRoughness": {
        "metallicFactor": 0,
        "baseColorTexture": {
          "index": 0
        },
        "metallicRoughnessTexture": {
          "index": 2
        }
      },
      "normalTexture": {
        "index": 1
      }
    }
  ],
  "meshes": [
    {
      "name": "realCap_Model_3",
      "primitives": [
        {
          "attributes": {
            "COLOR_0": 1,
            "POSITION": 2,
            "NORMAL": 3,
            "TEXCOORD_0": 4
          },
          "mode": 4,
          "material": 0,
          "indices": 0
        }
      ]
    }
  ],
  "nodes": [
    {
      "name": "rock_07",
      "mesh": 0
    }
  ],
  "scenes": [
    {
      "name": "Scene",
      "nodes": [
        0
      ]
    }
  ],
  "scene": 0,
  "extensionsUsed": [
    "EXT_meshopt_compression"
  ],
  "extensionsRequired": [
    "EXT_meshopt_compression"
  ]
}