{"asset":{"generator":"glTF-Transform v4.5.1","version":"2.0"},"accessors":[{"type":"SCALAR","componentType":5123,"count":744,"normalized":false,"byteOffset":0,"bufferView":0},{"type":"VEC4","componentType":5121,"count":250,"normalized":true,"byteOffset":0,"bufferView":1},{"type":"SCALAR","componentType":5123,"count":3027,"normalized":false,"byteOffset":1488,"bufferView":0},{"type":"VEC4","componentType":5121,"count":720,"normalized":true,"byteOffset":0,"bufferView":2},{"type":"SCALAR","componentType":5125,"count":241443,"normalized":false,"byteOffset":0,"bufferView":3},{"type":"VEC4","componentType":5121,"count":185394,"normalized":true,"byteOffset":0,"bufferView":4},{"type":"SCALAR","componentType":5123,"count":162,"normalized":false,"byteOffset":7542,"bufferView":0},{"type":"VEC4","componentType":5121,"count":119,"normalized":true,"byteOffset":0,"bufferView":5},{"type":"VEC3","componentType":5122,"count":250,"max":[5420,24246,5880],"min":[-4528,-12029,-7484],"normalized":true,"byteOffset":0,"bufferView":6},{"type":"VEC3","componentType":5122,"count":250,"normalized":true,"byteOffset":0,"bufferView":7},{"type":"VEC2","componentType":5123,"count":250,"normalized":true,"byteOffset":0,"bufferView":8},{"type":"VEC3","componentType":5122,"count":720,"max":[864,23850,2916],"min":[-2772,-32767,-844],"normalized":true,"byteOffset":0,"bufferView":9},{"type":"VEC3","componentType":5122,"count":720,"normalized":true,"byteOffset":0,"bufferView":10},{"type":"VEC2","componentType":5123,"count":720,"normalized":true,"byteOffset":0,"bufferView":11},{"type":"VEC3","componentType":5122,"count":185394,"max":[12169,32767,13305],"min":[-12169,-13981,-13305],"normalized":true,"byteOffset":0,"bufferView":12},{"type":"VEC3","componentType":5122,"count":185394,"normalized":true,"byteOffset":0,"bufferView":13},{"type":"VEC2","componentType":5123,"count":185394,"normalized":true,"byteOffset":0,"bufferView":14},{"type":"VEC3","componentType":5122,"count":119,"max":[620,-8112,2436],"min":[-3208,-24963,-1156],"normalized":true,"byteOffset":0,"bufferView":15},{"type":"VEC3","componentType":5122,"count":119,"normalized":true,"byteOffset":0,"bufferView":16},{"type":"VEC2","componentType":5123,"count":119,"normalized":true,"byteOffset":0,"bufferView":17}],"bufferViews":[{"buffer":1,"byteOffset":0,"byteLength":7866,"target":34963,"extensions":{"EXT_meshopt_compression":{"buffer":0,"byteOffset":0,"byteLength":1475,"mode":"TRIANGLES","byteStride":2,"count":3933}}},{"buffer":1,"byteOffset":7868,"byteLength":1000,"target":34962,"byteStride":4,"extensions":{"EXT_meshopt_compression":{"buffer":0,"byteOffset":1476,"byteLength":49,"mode":"ATTRIBUTES","byteStride":4,"count":250}}},{"buffer":1,"byteOffset":8868,"byteLength":2880,"target":34962,"byteStride":4,"extensions":{"EXT_meshopt_compression":{"buffer":0,"byteOffset":1528,"byteLength":81,"mode":"ATTRIBUTES","byteStride":4,"count":720}}},{"buffer":1,"byteOffset":11748,"byteLength":965772,"target":34963,"extensions":{"EXT_meshopt_compression":{"buffer":0,"byteOffset":1612,"byteLength":81654,"mode":"TRIANGLES","byteStride":4,"count":241443}}},{"buffer":1,"byteOffset":977520,"byteLength":741576,"target":34962,"byteStride":4,"extensions":{"EXT_meshopt_compression":{"buffer":0,"byteOffset":83268,"byteLength":11621,"mode":"ATTRIBUTES","byteStride":4,"count":185394}}},{"buffer":1,"byteOffset":1719096,"byteLength":476,"target":34962,"byteStride":4,"extensions":{"EXT_meshopt_compression":{"buffer":0,"byteOffset":94892,"byteLength":41,"mode":"ATTRIBUTES","byteStride":4,"count":119}}},{"buffer":1,"byteOffset":1719572,"byteLength":2000,"target":34962,"byteStride":8,"extensions":{"EXT_meshopt_compression":{"buffer":0,"byteOffset":94936,"byteLength":1317,"mode":"ATTRIBUTES","byteStride":8,"count":250}}},{"buffer":1,"byteOffset":1721572,"byteLength":2000,"target":34962,"byteStride":8,"extensions":{"EXT_meshopt_compression":{"buffer":0,"byteOffset":96256,"byteLength":1586,"mode":"ATTRIBUTES","byteStride":8,"count":250}}},{"buffer":1,"byteOffset":1723572,"byteLength":1000,"target":34962,"byteStride":4,"extensions":{"EXT_meshopt_compression":{"buffer":0,"byteOffset":97844,"byteLength":1010,"mode":"ATTRIBUTES","byteStride":4,"count":250}}},{"buffer":1,"byteOffset":1724572,"byteLength":5760,"target":34962,"byteStride":8,"extensions":{"EXT_meshopt_compression":{"buffer":0,"byteOffset":98856,"byteLength":3098,"mode":"ATTRIBUTES","byteStride":8,"count":720}}},{"buffer":1,"byteOffset":1730332,"byteLength":5760,"target":34962,"byteStride":8,"extensions":{"EXT_meshopt_compression":{"buffer":0,"byteOffset":101956,"byteLength":4366,"mode":"ATTRIBUTES","byteStride":8,"count":720}}},{"buffer":1,"byteOffset":1736092,"byteLength":2880,"target":34962,"byteStride":4,"extensions":{"EXT_meshopt_compression":{"buffer":0,"byteOffset":106324,"byteLength":2685,"mode":"ATTRIBUTES","byteStride":4,"count":720}}},{"buffer":1,"byteOffset":1738972,"byteLength":1483152,"target":34962,"byteStride":8,"extensions":{"EXT_meshopt_compression":{"buffer":0,"byteOffset":109012,"byteLength":750883,"mode":"ATTRIBUTES","byteStride":8,"count":185394}}},{"buffer":1,"byteOffset":3222124,"byteLength":1483152,"target":34962,"byteStride":8,"extensions":{"EXT_meshopt_compression":{"buffer":0,"byteOffset":859896,"byteLength":1133662,"mode":"ATTRIBUTES","byteStride":8,"count":185394}}},{"buffer":1,"byteOffset":4705276,"byteLength":741576,"target":34962,"byteStride":4,"extensions":{"EXT_meshopt_compression":{"buffer":0,"byteOffset":1993560,"byteLength":734006,"mode":"ATTRIBUTES","byteStride":4,"count":185394}}},{"buffer":1,"byteOffset":5446852,"byteLength":952,"target":34962,"byteStride":8,"extensions":{"EXT_meshopt_compression":{"buffer":0,"byteOffset":2727568,"byteLength":581,"mode":"ATTRIBUTES","byteStride":8,"count":119}}},{"buffer":1,"byteOffset":5447804,"byteLength":952,"target":34962,"byteStride":8,"extensions":{"EXT_meshopt_compression":{"buffer":0,"byteOffset":2728152,"byteLength":781,"mode":"ATTRIBUTES","byteStride":8,"count":119}}},{"buffer":1,"byteOffset":5448756,"byteLength":476,"target":34962,"byteStride":4,"extensions":{"EXT_meshopt_compression":{"buffer":0,"byteOffset":2728936,"byteLength":503,"mode":"ATTRIBUTES","byteStride":4,"count":119}}}],"buffers":[{"uri":"distance-f194e7712cb3ab46.bin","byteLength":2729440},{"byteLength":5449232,"extensions":{"EXT_meshopt_compression":{"fallback":true}}}],"materials":[{"name":"pine_tree_01_bark"},{"name":"pine_tree_01_trunk_a"},{"name":"pine_tree_01_twig"},{"name":"pine_tree_01_dead_branches"}],"meshes":[{"name":"NurbsPath.022","primitives":[{"attributes":{"COLOR_0":1,"POSITION":8,"NORMAL":9,"TEXCOORD_0":10},"mode":4,"material":0,"indices":0},{"attributes":{"COLOR_0":3,"POSITION":11,"NORMAL":12,"TEXCOORD_0":13},"mode":4,"material":1,"indices":2},{"attributes":{"COLOR_0":5,"POSITION":14,"NORMAL":15,"TEXCOORD_0":16},"mode":4,"material":2,"indices":4},{"attributes":{"COLOR_0":7,"POSITION":17,"NORMAL":18,"TEXCOORD_0":19},"mode":4,"material":3,"indices":6}]}],"nodes":[{"name":"Pine Tree 01 A","translation":[0.327351450920105,10.074564769864082,-0.3352482318878174],"scale":[10.15402714908123,10.15402714908123,10.15402714908123],"mesh":0}],"scenes":[{"nodes":[0]}],"scene":0,"extensionsUsed":["EXT_meshopt_compression","KHR_materials_ior","KHR_materials_specular","KHR_mesh_quantization","KHR_texture_transform"],"extensionsRequired":["EXT_meshopt_compression","KHR_mesh_quantization","KHR_texture_transform"]}