{"asset":{"generator":"glTF-Transform v4.5.1","version":"2.0"},"accessors":[{"type":"SCALAR","componentType":5123,"count":5412,"normalized":false,"byteOffset":0,"bufferView":0},{"type":"VEC4","componentType":5121,"count":1604,"normalized":true,"byteOffset":0,"bufferView":1},{"type":"SCALAR","componentType":5123,"count":20232,"normalized":false,"byteOffset":10824,"bufferView":0},{"type":"VEC4","componentType":5121,"count":4034,"normalized":true,"byteOffset":0,"bufferView":2},{"type":"SCALAR","componentType":5125,"count":1621749,"normalized":false,"byteOffset":0,"bufferView":3},{"type":"VEC4","componentType":5121,"count":939271,"normalized":true,"byteOffset":0,"bufferView":4},{"type":"SCALAR","componentType":5123,"count":1023,"normalized":false,"byteOffset":51288,"bufferView":0},{"type":"VEC4","componentType":5121,"count":441,"normalized":true,"byteOffset":0,"bufferView":5},{"type":"VEC3","componentType":5122,"count":1604,"max":[10269,26139,10505],"min":[-7864,-13241,-11037],"normalized":true,"byteOffset":0,"bufferView":6},{"type":"VEC3","componentType":5122,"count":1604,"normalized":true,"byteOffset":0,"bufferView":7},{"type":"VEC2","componentType":5123,"count":1604,"normalized":true,"byteOffset":0,"bufferView":8},{"type":"VEC3","componentType":5122,"count":4034,"max":[920,23690,2864],"min":[-2704,-32767,-900],"normalized":true,"byteOffset":0,"bufferView":9},{"type":"VEC3","componentType":5122,"count":4034,"normalized":true,"byteOffset":0,"bufferView":10},{"type":"VEC2","componentType":5123,"count":4034,"normalized":true,"byteOffset":0,"bufferView":11},{"type":"VEC3","componentType":5122,"count":939271,"max":[12229,32767,13361],"min":[-12229,-14033,-13361],"normalized":true,"byteOffset":0,"bufferView":12},{"type":"VEC3","componentType":5122,"count":939271,"normalized":true,"byteOffset":0,"bufferView":13},{"type":"VEC2","componentType":5123,"count":939271,"normalized":true,"byteOffset":0,"bufferView":14},{"type":"VEC3","componentType":5122,"count":441,"max":[1336,-7704,3480],"min":[-3876,-26647,-2064],"normalized":true,"byteOffset":0,"bufferView":15},{"type":"VEC3","componentType":5122,"count":441,"normalized":true,"byteOffset":0,"bufferView":16},{"type":"VEC2","componentType":5123,"count":441,"normalized":true,"byteOffset":0,"bufferView":17}],"bufferViews":[{"buffer":1,"byteOffset":0,"byteLength":53334,"target":34963,"extensions":{"EXT_meshopt_compression":{"buffer":0,"byteOffset":0,"byteLength":9994,"mode":"TRIANGLES","byteStride":2,"count":26667}}},{"buffer":1,"byteOffset":53336,"byteLength":6416,"target":34962,"byteStride":4,"extensions":{"EXT_meshopt_compression":{"buffer":0,"byteOffset":9996,"byteLength":137,"mode":"ATTRIBUTES","byteStride":4,"count":1604}}},{"buffer":1,"byteOffset":59752,"byteLength":16136,"target":34962,"byteStride":4,"extensions":{"EXT_meshopt_compression":{"buffer":0,"byteOffset":10136,"byteLength":289,"mode":"ATTRIBUTES","byteStride":4,"count":4034}}},{"buffer":1,"byteOffset":75888,"byteLength":6486996,"target":34963,"extensions":{"EXT_meshopt_compression":{"buffer":0,"byteOffset":10428,"byteLength":554421,"mode":"TRIANGLES","byteStride":4,"count":1621749}}},{"buffer":1,"byteOffset":6562884,"byteLength":3757084,"target":34962,"byteStride":4,"extensions":{"EXT_meshopt_compression":{"buffer":0,"byteOffset":564852,"byteLength":58741,"mode":"ATTRIBUTES","byteStride":4,"count":939271}}},{"buffer":1,"byteOffset":10319968,"byteLength":1764,"target":34962,"byteStride":4,"extensions":{"EXT_meshopt_compression":{"buffer":0,"byteOffset":623596,"byteLength":61,"mode":"ATTRIBUTES","byteStride":4,"count":441}}},{"buffer":1,"byteOffset":10321732,"byteLength":12832,"target":34962,"byteStride":8,"extensions":{"EXT_meshopt_compression":{"buffer":0,"byteOffset":623660,"byteLength":7722,"mode":"ATTRIBUTES","byteStride":8,"count":1604}}},{"buffer":1,"byteOffset":10334564,"byteLength":12832,"target":34962,"byteStride":8,"extensions":{"EXT_meshopt_compression":{"buffer":0,"byteOffset":631384,"byteLength":9887,"mode":"ATTRIBUTES","byteStride":8,"count":1604}}},{"buffer":1,"byteOffset":10347396,"byteLength":6416,"target":34962,"byteStride":4,"extensions":{"EXT_meshopt_compression":{"buffer":0,"byteOffset":641272,"byteLength":6226,"mode":"ATTRIBUTES","byteStride":4,"count":1604}}},{"buffer":1,"byteOffset":10353812,"byteLength":32272,"target":34962,"byteStride":8,"extensions":{"EXT_meshopt_compression":{"buffer":0,"byteOffset":647500,"byteLength":15756,"mode":"ATTRIBUTES","byteStride":8,"count":4034}}},{"buffer":1,"byteOffset":10386084,"byteLength":32272,"target":34962,"byteStride":8,"extensions":{"EXT_meshopt_compression":{"buffer":0,"byteOffset":663256,"byteLength":23921,"mode":"ATTRIBUTES","byteStride":8,"count":4034}}},{"buffer":1,"byteOffset":10418356,"byteLength":16136,"target":34962,"byteStride":4,"extensions":{"EXT_meshopt_compression":{"buffer":0,"byteOffset":687180,"byteLength":12778,"mode":"ATTRIBUTES","byteStride":4,"count":4034}}},{"buffer":1,"byteOffset":10434492,"byteLength":7514168,"target":34962,"byteStride":8,"extensions":{"EXT_meshopt_compression":{"buffer":0,"byteOffset":699960,"byteLength":3695044,"mode":"ATTRIBUTES","byteStride":8,"count":939271}}},{"buffer":1,"byteOffset":17948660,"byteLength":7514168,"target":34962,"byteStride":8,"extensions":{"EXT_meshopt_compression":{"buffer":0,"byteOffset":4395004,"byteLength":5707422,"mode":"ATTRIBUTES","byteStride":8,"count":939271}}},{"buffer":1,"byteOffset":25462828,"byteLength":3757084,"target":34962,"byteStride":4,"extensions":{"EXT_meshopt_compression":{"buffer":0,"byteOffset":10102428,"byteLength":3653155,"mode":"ATTRIBUTES","byteStride":4,"count":939271}}},{"buffer":1,"byteOffset":29219912,"byteLength":3528,"target":34962,"byteStride":8,"extensions":{"EXT_meshopt_compression":{"buffer":0,"byteOffset":13755584,"byteLength":2033,"mode":"ATTRIBUTES","byteStride":8,"count":441}}},{"buffer":1,"byteOffset":29223440,"byteLength":3528,"target":34962,"byteStride":8,"extensions":{"EXT_meshopt_compression":{"buffer":0,"byteOffset":13757620,"byteLength":2759,"mode":"ATTRIBUTES","byteStride":8,"count":441}}},{"buffer":1,"byteOffset":29226968,"byteLength":1764,"target":34962,"byteStride":4,"extensions":{"EXT_meshopt_compression":{"buffer":0,"byteOffset":13760380,"byteLength":1682,"mode":"ATTRIBUTES","byteStride":4,"count":441}}}],"samplers":[{"magFilter":9729,"minFilter":9987,"wrapS":10497,"wrapT":10497}],"textures":[{"source":1,"sampler":0},{"source":0,"sampler":0},{"source":2,"sampler":0},{"source":4,"sampler":0},{"source":3,"sampler":0},{"source":5,"sampler":0},{"source":7,"sampler":0},{"source":6,"sampler":0},{"source":8,"sampler":0}],"images":[{"name":"pine_tree_01_bark_nor_gl","mimeType":"image/jpeg","uri":"textures/5b0cc5c45f8f42c2bb7f20518f6a06485d4eaa5444380907916e278517cc5b1e.jpg"},{"name":"pine_tree_01_bark_diff","mimeType":"image/jpeg","uri":"textures/359bb1be7aab30f5b79d391af9ef088503d6d135d529c9fc06bce60adf28ef60.jpg"},{"name":"pine_tree_01_bark_rough","mimeType":"image/jpeg","uri":"textures/7afccadf4d239dfbcb99338067bf1b4d0c3316b42021ac2d7cdf17f8dddb7346.jpg"},{"name":"pine_tree_01_trunk_a_nor_gl","mimeType":"image/jpeg","uri":"textures/783e714a9916f411ed6686e2558f469e4b3e0de407c9e2ed797f97020b7bf6e9.jpg"},{"name":"pine_tree_01_trunk_a_diff","mimeType":"image/jpeg","uri":"textures/34dc75688c783a9ecbbd79f072449f270baededb5787f556846c03759fa2f818.jpg"},{"name":"pine_tree_01_trunk_a_rough","mimeType":"image/jpeg","uri":"textures/ee5d9aad98a063ed67698ab39d972a764a719986dc704957f9b2a0e18a7d4ef2.jpg"},{"name":"pine_tree_01_twig_nor_gl","mimeType":"image/jpeg","uri":"textures/d1275b97c77199d22aa523bb408389d1c661517fee1a73961b2f64d0697819c2.jpg"},{"name":"pine_tree_01_twig_diff","mimeType":"image/jpeg","uri":"textures/288f8752514dfcfb78e5d6bc927b585605a13b050a1a79de78044f7c0574c0fc.jpg"},{"name":"pine_tree_01_twig_rough","mimeType":"image/jpeg","uri":"textures/4906628f36f545db1bb9fb3d83ce247ef1266ae2ad77942f23066030c3abce22.jpg"}],"buffers":[{"uri":"hero-cb1b3e28a7ef79ab.bin","byteLength":13762064},{"byteLength":29228732,"extensions":{"EXT_meshopt_compression":{"fallback":true}}}],"materials":[{"name":"pine_tree_01_bark","doubleSided":true,"pbrMetallicRoughness":{"metallicFactor":0,"baseColorTexture":{"index":0,"extensions":{"KHR_texture_transform":{"offset":[0,0.9000000655651093],"scale":[1.2000000476837158,0.09999993443489075]}}},"metallicRoughnessTexture":{"index":2,"extensions":{"KHR_texture_transform":{"offset":[0,0.9000000655651093],"scale":[1.2000000476837158,0.09999993443489075]}}}},"normalTexture":{"index":1,"extensions":{"KHR_texture_transform":{"offset":[0,0.9000000655651093],"scale":[1.2000000476837158,0.09999993443489075]}}},"extensions":{"KHR_materials_ior":{"ior":1.4500000476837158},"KHR_materials_specular":{"specularFactor":0.03999999910593033}}},{"name":"pine_tree_01_trunk_a","doubleSided":true,"pbrMetallicRoughness":{"metallicFactor":0,"baseColorTexture":{"index":3},"metallicRoughnessTexture":{"index":5}},"normalTexture":{"index":4},"extensions":{"KHR_materials_ior":{"ior":1.4500000476837158},"KHR_materials_specular":{"specularFactor":0.4000000059604645}}},{"name":"pine_tree_01_twig","doubleSided":true,"pbrMetallicRoughness":{"metallicFactor":0,"baseColorTexture":{"index":6},"metallicRoughnessTexture":{"index":8}},"normalTexture":{"index":7},"extensions":{"KHR_materials_ior":{"ior":1.4500000476837158},"KHR_materials_specular":{"specularFactor":0.019999999552965164}}},{"name":"pine_tree_01_dead_branches","doubleSided":true,"pbrMetallicRoughness":{"metallicFactor":0,"baseColorTexture":{"index":0},"metallicRoughnessTexture":{"index":2}},"normalTexture":{"index":1},"extensions":{"KHR_materials_ior":{"ior":1.4500000476837158},"KHR_materials_specular":{"specularFactor":0.03999999910593033}}}],"meshes":[{"name":"NurbsPath.022","primitives":[{"attributes":{"COLOR_0":1,"POSITION":8,"NORMAL":9,"TEXCOORD_0":10},"mode":4,"material":0,"indices":0},{"attributes":{"COLOR_0":3,"POSITION":11,"NORMAL":12,"TEXCOORD_0":13},"mode":4,"material":1,"indices":2},{"attributes":{"COLOR_0":5,"POSITION":14,"NORMAL":15,"TEXCOORD_0":16},"mode":4,"material":2,"indices":4},{"attributes":{"COLOR_0":7,"POSITION":17,"NORMAL":18,"TEXCOORD_0":19},"mode":4,"material":3,"indices":6}]}],"nodes":[{"name":"Pine Tree 01 A","translation":[0.30954718589782715,10.103443935513496,-0.3201746940612793],"scale":[10.182906314730644,10.182906314730644,10.182906314730644],"mesh":0}],"scenes":[{"nodes":[0]}],"scene":0,"extensionsUsed":["EXT_meshopt_compression","KHR_materials_ior","KHR_materials_specular","KHR_mesh_quantization","KHR_texture_transform"],"extensionsRequired":["EXT_meshopt_compression","KHR_mesh_quantization","KHR_texture_transform"]}